<svg width="50" height="16" viewBox="0 0 50 16" fill="none" xmlns="http://www.w3.org/2000/svg">
<path d="M34.9896 5.74162C34.8322 6.3564 34.7532 6.98862 34.7544 7.62322C34.7542 9.62454 35.5414 11.5456 36.946 12.9712C38.3506 14.3969 40.2597 15.2126 42.2608 15.2422H42.3784C44.1888 15.2454 45.9407 14.6011 47.3176 13.4257V15.2497H49.9999V7.49311H43.0965V10.1804H46.054C45.6426 10.7744 45.0932 11.2597 44.453 11.5949C43.8129 11.93 43.101 12.1049 42.3784 12.1045C42.2111 12.1044 42.044 12.0944 41.878 12.0745C41.4352 12.0259 41.0024 11.9103 40.5944 11.7317C39.2341 11.2511 38.0143 10.4407 37.044 9.37311C36.0737 8.30547 35.3833 7.0139 35.0346 5.61401C35.0221 5.65655 35.0096 5.69909 34.9996 5.74162" fill="white"/>
<path d="M35.0247 5.61392C35.3734 7.0138 36.0637 8.30538 37.034 9.37301C38.0043 10.4407 39.2241 11.251 40.5844 11.7316C39.966 11.4619 39.4165 11.0561 38.9769 10.5444C38.5373 10.0327 38.2188 9.42831 38.0454 8.77637C37.8719 8.12443 37.8478 7.44174 37.975 6.77922C38.1022 6.11669 38.3773 5.49142 38.7799 4.95006C39.1824 4.40869 39.702 3.9652 40.2998 3.65265C40.8977 3.34011 41.5584 3.16658 42.2327 3.14501C42.907 3.12344 43.5774 3.25438 44.194 3.52807C44.8106 3.80176 45.3575 4.21114 45.7938 4.72567C46.0201 4.99283 46.3018 5.20754 46.6193 5.35488C46.9369 5.50222 47.2828 5.57866 47.6329 5.57889H49.7196C49.2725 3.97149 48.3103 2.55523 46.9806 1.54744C45.6509 0.53966 44.0272 -0.00395552 42.3588 2.16689e-05C40.6904 0.00399886 39.0694 0.555349 37.7445 1.56946C36.4196 2.58357 35.4641 4.00441 35.0247 5.61392Z" fill="url(#paint0_linear)"/>
<path d="M32.4226 0.00268705C31.8914 0.00209988 31.3743 0.174027 30.9493 0.492603C30.5242 0.811178 30.2141 1.25917 30.0656 1.76919L27.7036 9.86607H27.6635L24.661 0.00268705H21.5058L18.3056 9.86607H18.2655L15.6058 0.00268705H0V1.23874C-1.92523e-07 1.51956 0.055353 1.79763 0.162895 2.05704C0.270436 2.31645 0.428056 2.55213 0.626743 2.75058C0.82543 2.94904 1.06129 3.10638 1.32083 3.21362C1.58037 3.32086 1.8585 3.37588 2.13932 3.37555H12.4831L16.0236 15.2306H20.0821L23.0646 6.42314H23.1121L25.7719 15.2306H29.8504L34.712 0.00268705H32.4226Z" fill="url(#paint1_linear)"/>
<path d="M7.97933 4.3479H3.79077V15.2297H7.97933V4.3479Z" fill="url(#paint2_linear)"/>
<defs>
<linearGradient id="paint0_linear" x1="34.4892" y1="12.9527" x2="45.4961" y2="1.71811" gradientUnits="userSpaceOnUse">
<stop stop-color="#FF0700"/>
<stop offset="1" stop-color="#FF6D00"/>
</linearGradient>
<linearGradient id="paint1_linear" x1="17.356" y1="0.00268555" x2="17.356" y2="16.0013" gradientUnits="userSpaceOnUse">
<stop stop-color="#FF6D00"/>
<stop offset="1" stop-color="#FF0000"/>
</linearGradient>
<linearGradient id="paint2_linear" x1="5.88505" y1="4.3479" x2="5.88505" y2="15.2297" gradientUnits="userSpaceOnUse">
<stop stop-color="#FF6D00"/>
<stop offset="1" stop-color="#FF0000"/>
</linearGradient>
</defs>
</svg>
